<svg xmlns="http://www.w3.org/2000/svg" width="500" viewBox="18 85 342 212" preserveAspectRatio="xMidYMid meet"><path fill="currentColor" d="M 180.902344 90.058594 C 177.019531 91.257812 171.375 92.265625 168.359375 92.296875 C 162.386719 92.363281 159.640625 93.382812 157.140625 96.46875 C 154.195312 100.105469 155.183594 105.296875 159.761719 110.253906 L 161.9375 112.609375 L 159.316406 115.523438 C 157.871094 117.136719 155.304688 118.71875 153.574219 119.0625 C 149.953125 119.789062 144.6875 123.535156 143.085938 126.523438 C 142.480469 127.660156 141.40625 132.625 140.703125 137.554688 C 140.097656 141.820312 139.484375 146.085938 138.867188 150.351562 C 138.121094 155.464844 141.332031 159.550781 146.09375 159.550781 C 148.394531 159.550781 149.859375 160.261719 151.449219 162.152344 C 158.484375 170.515625 175.617188 168.988281 186.410156 159.039062 L 190.695312 155.089844 L 192.019531 158.339844 C 194.945312 165.5 196.179688 174.554688 195.632812 184.75 C 195.257812 191.691406 195.425781 195.050781 196.1875 195.808594 C 197.011719 196.632812 196.796875 197.757812 195.308594 200.441406 C 190.621094 208.890625 190.015625 212.375 189.449219 234.285156 C 189.152344 245.773438 188.601562 255.476562 188.222656 255.855469 C 187.847656 256.230469 185.554688 255.519531 183.128906 254.269531 C 176.074219 250.636719 174.871094 247.363281 174.453125 230.597656 C 174.058594 214.863281 174.46875 211.988281 177.097656 211.988281 C 178.09375 211.988281 179.171875 211.566406 179.492188 211.046875 C 179.863281 210.445312 176.925781 210.105469 171.351562 210.105469 C 166.128906 210.105469 162.988281 210.445312 163.523438 210.957031 C 164.015625 211.425781 165.265625 211.957031 166.304688 212.144531 C 168.082031 212.464844 168.210938 213.414062 168.65625 229.429688 C 169.160156 247.453125 169.667969 249.617188 174.46875 254.097656 C 177.070312 256.53125 182.816406 259.089844 185.667969 259.089844 C 187.472656 259.089844 187.601562 259.445312 187.027344 262.859375 C 186.675781 264.929688 186.621094 266.625 186.910156 266.625 C 187.191406 266.625 187.882812 264.929688 188.441406 262.859375 C 189.230469 259.914062 189.910156 259.085938 191.539062 259.070312 C 196.984375 259.015625 205.140625 252.992188 207.21875 247.488281 C 207.773438 246.023438 208.222656 238.164062 208.222656 229.902344 C 208.222656 221.691406 208.480469 214.300781 208.792969 213.480469 C 209.109375 212.660156 210.355469 211.988281 211.5625 211.988281 C 212.773438 211.988281 214.023438 211.566406 214.34375 211.046875 C 214.714844 210.449219 212.136719 210.105469 207.28125 210.105469 C 202.421875 210.105469 199.84375 210.449219 200.214844 211.046875 C 200.535156 211.566406 201.824219 211.988281 203.078125 211.988281 C 206.253906 211.988281 206.601562 214.113281 206.199219 231.058594 C 205.894531 244.054688 205.65625 245.761719 203.710938 248.898438 C 202.445312 250.933594 199.894531 253.167969 197.527344 254.3125 C 190.320312 257.800781 190.507812 258.160156 190.929688 241.425781 C 191.515625 218.046875 191.871094 213.710938 193.601562 208.757812 C 196.621094 200.113281 198.941406 197.457031 205.542969 195.097656 C 208.828125 193.917969 213.410156 191.871094 215.722656 190.542969 C 219.398438 188.429688 221.0625 188.117188 229.050781 188.042969 C 236.621094 187.972656 238.515625 187.652344 240.15625 186.167969 C 242.550781 184.003906 242.597656 183.386719 240.527344 181.316406 C 239.167969 179.957031 237.679688 179.792969 230.871094 180.25 C 218.390625 181.09375 206.242188 186.070312 201.328125 192.347656 C 197.96875 196.636719 195.695312 195.546875 196.667969 190.113281 C 198.210938 181.503906 196.972656 168.328125 193.59375 157.3125 C 193.265625 156.246094 194.558594 155.382812 198.476562 154.050781 C 202.269531 152.757812 205.628906 150.566406 210.128906 146.433594 C 213.609375 143.242188 220.070312 138.660156 224.488281 136.25 C 236.96875 129.449219 236.914062 129.09375 223.410156 129.09375 C 217.128906 129.09375 211.988281 128.734375 211.988281 128.296875 C 211.988281 127.859375 212.78125 126.785156 213.75 125.910156 C 217.265625 122.730469 221.527344 111.625 222.015625 104.371094 C 222.816406 92.570312 218.617188 88.949219 207.480469 91.832031 C 200.515625 93.636719 199.742188 93.648438 199.742188 91.9375 C 199.742188 89.699219 195.808594 87.636719 191.761719 87.761719 C 189.675781 87.824219 184.789062 88.859375 180.902344 90.058594 M 183.730469 91.078125 C 181.398438 91.859375 175.722656 92.851562 171.117188 93.285156 C 160.726562 94.257812 157.957031 95.949219 157.539062 101.5625 C 157.304688 104.699219 157.753906 105.960938 159.992188 108.46875 C 162.632812 111.421875 162.847656 111.488281 165.800781 110.265625 C 169.992188 108.53125 176.039062 108.683594 179.769531 110.617188 C 186.40625 114.0625 188.394531 122.4375 184.484375 130.480469 C 182.992188 133.554688 182.699219 135.03125 183.4375 135.773438 C 184.175781 136.507812 185.40625 134.335938 187.847656 128 C 190.945312 119.949219 191.1875 118.644531 190.664062 112.609375 C 189.984375 104.746094 191.496094 100.230469 195.890625 96.980469 C 199.242188 94.5 199.492188 93.273438 197.078125 91.089844 C 194.949219 89.164062 189.457031 89.15625 183.730469 91.078125 M 205.160156 93.964844 C 201.925781 95.042969 200.6875 95.949219 200.6875 97.238281 C 200.6875 98.21875 199.140625 102.925781 197.257812 107.699219 C 193.976562 115.988281 193.820312 116.910156 193.722656 128.351562 L 193.621094 140.328125 L 197.390625 136.691406 C 199.460938 134.695312 202.894531 132.191406 205.015625 131.132812 C 209.820312 128.730469 213.847656 124.210938 217.019531 117.660156 C 221.347656 108.726562 221.878906 96.40625 218.054688 93.609375 C 215.808594 91.96875 210.726562 92.109375 205.160156 93.964844 M 195.773438 98.714844 C 192.996094 101.894531 192.207031 104.53125 192.269531 110.425781 L 192.332031 116.375 L 195.53125 108.371094 C 198.757812 100.289062 199.464844 97.066406 198.007812 97.066406 C 197.566406 97.066406 196.5625 97.808594 195.773438 98.714844 M 166.992188 111.507812 L 164.855469 112.695312 L 167.785156 115.476562 C 169.398438 117.007812 173.179688 121.519531 176.191406 125.5 L 181.667969 132.738281 L 183.640625 128.152344 C 186.019531 122.625 186.066406 121.382812 184.070312 117.179688 C 181.386719 111.519531 172.367188 108.523438 166.992188 111.507812 M 160.796875 115.746094 C 158.589844 118.183594 158.78125 118.535156 162.917969 119.648438 C 167.574219 120.902344 175.738281 128.171875 177.28125 132.4375 C 177.929688 134.226562 178.769531 135.6875 179.152344 135.6875 C 182.40625 135.6875 178.332031 129.175781 169.28125 119.910156 C 166.117188 116.671875 163.265625 114.023438 162.945312 114.023438 C 162.621094 114.023438 161.652344 114.796875 160.796875 115.746094 M 149.851562 122.265625 C 144.277344 125.078125 143.113281 128.585938 140.675781 149.945312 C 140.265625 153.542969 140.527344 154.660156 142.171875 156.300781 C 143.269531 157.398438 145.226562 158.296875 146.519531 158.296875 C 148.496094 158.296875 148.875 157.851562 148.875 155.546875 C 148.875 154.035156 149.140625 152.113281 149.460938 151.273438 C 150.167969 149.429688 154.640625 146.992188 157.320312 146.992188 C 159.179688 146.992188 159.152344 146.820312 156.664062 143.058594 C 154.398438 139.636719 154.0625 138.207031 154.058594 131.992188 C 154.058594 128.066406 154.402344 123.902344 154.828125 122.734375 C 155.785156 120.101562 154.398438 119.96875 149.851562 122.265625 M 156.339844 123.164062 C 154.5625 127.835938 155.121094 136.335938 157.511719 141.089844 C 160.296875 146.621094 164.375 148.875 171.589844 148.875 L 176.902344 148.875 L 177.386719 143.460938 C 178.195312 134.457031 173.445312 126.144531 165.359375 122.402344 C 159.941406 119.894531 157.503906 120.097656 156.339844 123.164062 M 188.535156 130.257812 C 185.695312 137.609375 185.488281 138.757812 186.546875 141.316406 C 187.859375 144.488281 189.773438 145.03125 190.785156 142.515625 C 192.015625 139.464844 192.921875 129.523438 192.3125 125.769531 L 191.707031 122.050781 Z M 211.875 130.945312 C 209.535156 131.652344 195.289062 141.730469 193.917969 143.644531 C 193.175781 144.6875 191.84375 153.539062 192.355469 154.046875 C 193.511719 155.203125 203.128906 150.496094 207.019531 146.871094 C 212.394531 141.859375 218.144531 137.847656 225.179688 134.195312 L 230.359375 131.503906 L 225.179688 130.863281 C 218.339844 130.015625 214.871094 130.039062 211.875 130.945312 M 200.03125 136.246094 L 197.390625 138.6875 L 200.449219 136.652344 C 203.253906 134.789062 204.167969 133.804688 203.09375 133.804688 C 202.863281 133.804688 201.484375 134.902344 200.03125 136.246094 M 180.390625 137.867188 C 180.027344 139.324219 180.132812 141.425781 180.628906 142.535156 C 181.484375 144.457031 181.574219 144.414062 182.554688 141.609375 C 183.34375 139.339844 183.289062 138.273438 182.316406 136.941406 C 181.140625 135.332031 181.015625 135.394531 180.390625 137.867188 M 182.765625 144.699219 C 181.398438 148.84375 182.207031 149.875 184.796875 147.285156 C 186.144531 145.9375 186.554688 144.710938 186.121094 143.335938 C 185.191406 140.414062 184.023438 140.890625 182.765625 144.699219 M 178.238281 143.695312 C 178.222656 144.730469 178.574219 146.425781 179.019531 147.464844 C 180.050781 149.863281 180.050781 147.386719 179.019531 144.164062 C 178.414062 142.273438 178.261719 142.179688 178.238281 143.695312 M 186.691406 147.847656 C 185.742188 148.433594 185.699219 148.816406 186.519531 149.324219 C 187.8125 150.121094 188.78125 149.414062 188.300781 148.023438 C 188.105469 147.453125 187.441406 147.378906 186.691406 147.847656 M 190.398438 148.484375 C 190.445312 149.582031 190.667969 149.804688 190.96875 149.054688 C 191.238281 148.371094 191.207031 147.558594 190.894531 147.246094 C 190.582031 146.933594 190.359375 147.488281 190.398438 148.484375 M 154.535156 149.246094 C 152.375 149.957031 151.09375 151.128906 150.496094 152.9375 C 150.015625 154.394531 149.820312 155.785156 150.058594 156.027344 C 150.300781 156.265625 153.589844 154.980469 157.371094 153.167969 C 161.15625 151.355469 163.652344 149.6875 162.921875 149.457031 C 159.328125 148.335938 157.433594 148.285156 154.535156 149.246094 M 171.253906 152.214844 C 174.160156 154.246094 179.558594 156.410156 181.722656 156.410156 C 183.339844 156.410156 183.25 156.097656 180.902344 153.585938 C 178.675781 151.203125 177.554688 150.761719 173.722656 150.761719 C 169.359375 150.761719 169.261719 150.816406 171.253906 152.214844 M 184.484375 151.890625 C 185.363281 152.769531 185.867188 152.769531 186.746094 151.890625 C 187.625 151.011719 187.371094 150.761719 185.613281 150.761719 C 183.855469 150.761719 183.605469 151.011719 184.484375 151.890625 M 159.707031 153.644531 C 157.117188 154.660156 154.023438 156.246094 152.828125 157.171875 L 150.65625 158.851562 L 152.636719 161.367188 C 157.628906 167.71875 172.136719 167.246094 182.316406 160.398438 L 186.085938 157.863281 L 180.882812 157.285156 C 177.679688 156.929688 174.15625 155.746094 171.714844 154.203125 C 167.046875 151.257812 165.9375 151.203125 159.707031 153.644531 M 187.96875 152.644531 C 187.648438 153.160156 187.835938 153.585938 188.382812 153.585938 C 188.933594 153.585938 189.382812 153.160156 189.382812 152.644531 C 189.382812 152.125 189.195312 151.703125 188.964844 151.703125 C 188.738281 151.703125 188.289062 152.125 187.96875 152.644531 M 23.589844 224.707031 L 23.589844 281.699219 L 52.265625 281.699219 C 70.367188 281.699219 81.15625 281.351562 81.523438 280.757812 C 81.90625 280.136719 72.269531 279.8125 53.320312 279.8125 L 24.53125 279.8125 L 24.53125 169.601562 L 77.753906 169.601562 C 112.609375 169.601562 130.976562 169.273438 130.976562 168.65625 C 130.976562 168.039062 112.453125 167.714844 77.285156 167.714844 L 23.589844 167.714844 Z M 247.785156 168.65625 C 247.785156 169.273438 266.46875 169.601562 301.949219 169.601562 L 356.117188 169.601562 L 356.117188 279.8125 L 327.386719 279.8125 C 308.859375 279.8125 298.652344 280.148438 298.652344 280.757812 C 298.652344 281.363281 309.015625 281.699219 327.855469 281.699219 L 357.058594 281.699219 L 357.058594 167.714844 L 302.421875 167.714844 C 266.625 167.714844 247.785156 168.039062 247.785156 168.65625 M 222.351562 182.851562 C 213.488281 185.164062 206.011719 188.773438 203.519531 191.9375 C 202.464844 193.28125 201.8125 194.589844 202.066406 194.84375 C 202.320312 195.101562 206.605469 193.339844 211.582031 190.933594 C 220.167969 186.78125 221.046875 186.554688 228.621094 186.554688 C 236.777344 186.554688 240.25 185.59375 240.25 183.335938 C 240.25 180.4375 232.414062 180.226562 222.351562 182.851562 M 81.394531 209.886719 C 80.808594 210.265625 76.429688 219.902344 71.667969 231.300781 C 61.984375 254.476562 61.042969 256.265625 58.476562 256.265625 C 57.484375 256.265625 56.410156 256.6875 56.089844 257.207031 C 55.71875 257.804688 58.296875 258.148438 63.152344 258.148438 C 68.011719 258.148438 70.589844 257.804688 70.21875 257.207031 C 69.898438 256.6875 68.601562 256.265625 67.335938 256.265625 C 64.652344 256.265625 64.433594 254.820312 66.402344 250.109375 L 67.769531 246.84375 L 93.042969 246.84375 L 94.582031 250.878906 C 96.53125 255.976562 96.515625 256.265625 94.296875 256.265625 C 93.289062 256.265625 92.207031 256.6875 91.886719 257.207031 C 91.511719 257.808594 94.5625 258.148438 100.363281 258.148438 C 106.164062 258.148438 109.214844 257.808594 108.839844 257.207031 C 108.519531 256.6875 107.488281 256.265625 106.546875 256.265625 C 105.601562 256.265625 104.261719 255.574219 103.5625 254.734375 C 102.863281 253.890625 98.195312 243.414062 93.183594 231.453125 C 88.175781 219.488281 83.714844 209.585938 83.269531 209.449219 C 82.828125 209.308594 81.984375 209.503906 81.394531 209.886719 M 297.058594 210.195312 C 296.476562 210.777344 291.84375 221.195312 286.757812 233.351562 C 278.183594 253.855469 277.328125 255.488281 274.878906 255.980469 C 269.46875 257.0625 271.46875 258.148438 278.871094 258.148438 C 283.730469 258.148438 286.308594 257.804688 285.9375 257.207031 C 285.617188 256.6875 284.320312 256.265625 283.054688 256.265625 C 280.316406 256.265625 280.144531 254.785156 282.34375 250.171875 L 283.929688 246.84375 L 308.8125 246.84375 L 310.328125 250.628906 C 312.277344 255.503906 312.234375 256.265625 310.011719 256.265625 C 309.007812 256.265625 307.921875 256.6875 307.601562 257.207031 C 307.230469 257.808594 310.261719 258.148438 316.023438 258.148438 C 321.398438 258.148438 325.03125 257.769531 325.03125 257.207031 C 325.03125 256.6875 323.949219 256.265625 322.628906 256.265625 C 319.550781 256.265625 319.246094 255.699219 308.6875 230.4375 C 303.941406 219.082031 299.621094 209.644531 299.085938 209.464844 C 298.550781 209.289062 297.636719 209.613281 297.058594 210.195312 M 112.558594 210.96875 C 112.90625 211.527344 113.96875 211.988281 114.917969 211.988281 C 115.871094 211.988281 116.902344 212.660156 117.21875 213.480469 C 117.964844 215.421875 117.964844 252.832031 117.21875 254.773438 C 116.902344 255.59375 115.871094 256.265625 114.917969 256.265625 C 113.96875 256.265625 112.929688 256.6875 112.609375 257.207031 C 112.238281 257.808594 115.175781 258.148438 120.75 258.148438 C 125.972656 258.148438 129.113281 257.808594 128.574219 257.296875 C 128.085938 256.828125 126.832031 256.292969 125.796875 256.109375 C 123.992188 255.78125 123.902344 254.921875 123.644531 236 C 123.5 225.125 123.628906 215.222656 123.929688 213.988281 C 124.460938 211.835938 124.742188 211.765625 131.261719 212.183594 C 143.1875 212.949219 148.871094 217.445312 148.871094 226.121094 C 148.871094 234.3125 142.585938 239.726562 132.144531 240.53125 C 126.613281 240.957031 125.625 242.195312 129.929688 243.3125 C 131.710938 243.773438 134.800781 246.351562 138.230469 250.246094 C 145.925781 258.976562 149.730469 260.644531 155.332031 257.746094 C 158.5 256.109375 160.179688 252.667969 160.179688 247.820312 C 160.179688 242.941406 159.398438 241.191406 157.222656 241.191406 C 154.425781 241.191406 154.046875 243.84375 156.390625 247.015625 C 159.273438 250.914062 157.890625 254.378906 153.457031 254.378906 C 151.027344 254.378906 149.4375 253.3125 145.035156 248.726562 C 142.046875 245.621094 139.042969 243.054688 138.351562 243.023438 C 137.664062 242.996094 139.59375 242.179688 142.644531 241.203125 C 157.957031 236.3125 160.828125 220.386719 147.746094 212.894531 C 143.960938 210.730469 142.65625 210.554688 127.8125 210.261719 C 116.550781 210.035156 112.109375 210.242188 112.558594 210.96875 M 219.027344 211 C 219.363281 211.542969 220.414062 211.988281 221.363281 211.988281 C 222.316406 211.988281 223.273438 212.519531 223.5 213.167969 C 223.71875 213.816406 223.660156 223.664062 223.363281 235.058594 C 222.847656 254.8125 222.734375 255.785156 220.9375 256.109375 C 219.902344 256.296875 218.652344 256.828125 218.160156 257.296875 C 217.625 257.808594 220.4375 258.148438 225.179688 258.148438 C 229.917969 258.148438 232.730469 257.808594 232.195312 257.296875 C 231.703125 256.828125 230.453125 256.296875 229.417969 256.109375 C 227.730469 255.804688 227.457031 254.734375 226.8125 245.890625 C 226.414062 240.457031 226.203125 231.710938 226.339844 226.457031 L 226.589844 216.902344 L 241.285156 237.289062 C 254.578125 255.738281 256.261719 257.707031 258.945312 257.972656 L 261.914062 258.265625 L 261.914062 236.949219 C 261.914062 214.988281 262.367188 211.988281 265.660156 211.988281 C 266.648438 211.988281 267.71875 211.566406 268.039062 211.046875 C 268.410156 210.449219 265.832031 210.105469 260.972656 210.105469 C 256.117188 210.105469 253.539062 210.449219 253.910156 211.046875 C 254.230469 211.566406 255.480469 211.988281 256.691406 211.988281 C 257.898438 211.988281 259.144531 212.660156 259.460938 213.480469 C 259.773438 214.300781 260.03125 223.074219 260.03125 232.980469 C 260.03125 246.824219 259.773438 250.730469 258.917969 249.875 C 258.308594 249.265625 251.625 240.171875 244.070312 229.671875 L 230.335938 210.578125 L 224.375 210.292969 C 220.390625 210.105469 218.617188 210.339844 219.027344 211 M 295.558594 218.777344 C 295.28125 219.449219 292.707031 225.613281 289.839844 232.476562 L 284.621094 244.960938 L 296.402344 244.960938 C 302.882812 244.960938 307.996094 244.640625 307.765625 244.253906 C 307.535156 243.863281 304.921875 237.824219 301.953125 230.828125 C 298.984375 223.835938 296.445312 217.988281 296.308594 217.835938 C 296.171875 217.683594 295.835938 218.109375 295.558594 218.777344 M 74.410156 231.003906 C 71.585938 237.835938 69.136719 243.769531 68.964844 244.191406 C 68.789062 244.613281 73.769531 244.960938 80.03125 244.960938 C 86.292969 244.960938 91.414062 244.640625 91.414062 244.253906 C 91.417969 242.902344 80.738281 218.582031 80.140625 218.582031 C 79.8125 218.582031 77.230469 224.171875 74.410156 231.003906 M 92.355469 275.554688 C 92.355469 276.789062 97.484375 288.292969 98.035156 288.292969 C 98.984375 288.292969 103.996094 276.066406 103.320312 275.394531 C 103 275.074219 101.707031 277.101562 100.441406 279.902344 L 98.144531 284.996094 L 96.003906 280.050781 C 94.828125 277.328125 93.527344 275.105469 93.113281 275.105469 C 92.695312 275.105469 92.355469 275.308594 92.355469 275.554688 M 111.195312 281.699219 C 111.195312 285.464844 111.601562 288.292969 112.136719 288.292969 C 112.675781 288.292969 113.078125 285.464844 113.078125 281.699219 C 113.078125 277.929688 112.675781 275.105469 112.136719 275.105469 C 111.601562 275.105469 111.195312 277.929688 111.195312 281.699219 M 121.605469 281.460938 C 121.578125 285.421875 121.953125 288.292969 122.5 288.292969 C 123.019531 288.292969 123.464844 286.488281 123.492188 284.289062 L 123.539062 280.285156 L 125.140625 282.589844 C 129.871094 289.40625 129.96875 289.390625 130.003906 281.878906 C 130.023438 277.519531 129.691406 275.207031 129.09375 275.574219 C 128.574219 275.894531 128.136719 277.722656 128.121094 279.632812 C 128.089844 283.042969 128.058594 283.074219 126.472656 281.175781 C 125.582031 280.113281 124.136719 278.203125 123.253906 276.9375 C 121.6875 274.675781 121.65625 274.757812 121.605469 281.460938 M 137.570312 275.636719 C 137.570312 275.929688 138.632812 277.5625 139.925781 279.257812 C 141.289062 281.046875 142.28125 283.601562 142.28125 285.320312 C 142.28125 286.953125 142.707031 288.292969 143.222656 288.292969 C 143.742188 288.292969 144.167969 286.914062 144.171875 285.230469 C 144.175781 283.546875 145.019531 280.898438 146.050781 279.34375 C 148.714844 275.324219 148.324219 274.121094 145.425781 277.417969 L 142.980469 280.203125 L 140.945312 277.652344 C 139.054688 275.277344 137.570312 274.394531 137.570312 275.636719 M 159.363281 277.070312 C 158.875 278.320312 157.605469 281.355469 156.535156 283.816406 C 155.46875 286.277344 155.015625 288.292969 155.53125 288.292969 C 156.050781 288.292969 156.714844 287.65625 157.011719 286.878906 C 157.347656 286.007812 158.777344 285.464844 160.75 285.464844 C 162.964844 285.464844 163.949219 285.898438 163.949219 286.878906 C 163.949219 287.65625 164.371094 288.292969 164.890625 288.292969 C 166.246094 288.292969 166.078125 287.273438 163.789062 281.585938 C 161.144531 275.023438 160.441406 274.304688 159.363281 277.070312 M 174.5 276.234375 C 172.230469 278.503906 173.238281 280.859375 177.136719 282.386719 C 179.207031 283.203125 180.902344 284.410156 180.902344 285.074219 C 180.902344 286.824219 177.285156 287.703125 175.65625 286.351562 C 174.109375 285.070312 172.828125 285.714844 173.800781 287.285156 C 174.71875 288.769531 180.492188 288.507812 181.808594 286.925781 C 183.660156 284.695312 182.539062 282.410156 179.019531 281.226562 C 177.164062 280.601562 175.578125 279.371094 175.390625 278.414062 C 175.105469 276.949219 175.535156 276.789062 178.453125 277.261719 C 181.859375 277.8125 183.140625 276.746094 180.355469 275.675781 C 178.023438 274.78125 175.730469 275 174.5 276.234375 M 191.910156 281.398438 C 189.601562 287.222656 189.261719 290.898438 191.382812 287.105469 C 191.925781 286.132812 193.417969 285.464844 195.035156 285.464844 C 196.652344 285.464844 198.140625 286.132812 198.683594 287.105469 C 199.1875 288.007812 199.835938 288.515625 200.117188 288.234375 C 200.707031 287.640625 195.789062 275.140625 194.957031 275.117188 C 194.65625 275.109375 193.285156 277.9375 191.910156 281.398438 M 218.582031 275.917969 C 218.582031 276.367188 219.433594 277.8125 220.46875 279.128906 C 221.558594 280.515625 222.351562 282.949219 222.351562 284.910156 C 222.351562 286.769531 222.777344 288.292969 223.292969 288.292969 C 223.8125 288.292969 224.234375 286.953125 224.234375 285.320312 C 224.234375 283.601562 225.230469 281.046875 226.589844 279.257812 C 229.125 275.9375 229.425781 275.105469 228.097656 275.105469 C 227.628906 275.105469 226.410156 276.425781 225.386719 278.039062 L 223.53125 280.972656 L 221.796875 278.039062 C 220.132812 275.222656 218.582031 274.203125 218.582031 275.917969 M 239.523438 275.734375 C 238.863281 276 237.703125 277.421875 236.941406 278.898438 C 233.3125 285.914062 242.832031 292.019531 247.71875 285.808594 C 250.28125 282.550781 250.183594 280.242188 247.355469 277.417969 C 245.1875 275.246094 242.285156 274.625 239.523438 275.734375 M 260.246094 275.734375 C 259.589844 276 258.425781 277.421875 257.664062 278.898438 C 254.042969 285.898438 263.554688 292.023438 268.429688 285.824219 C 269.496094 284.46875 270.136719 282.988281 269.855469 282.527344 C 269.152344 281.390625 264.046875 281.476562 263.328125 282.640625 C 262.988281 283.191406 263.984375 283.582031 265.742188 283.582031 C 268.300781 283.582031 268.566406 283.789062 267.566406 284.996094 C 266.34375 286.472656 262.171875 286.878906 260.433594 285.6875 C 258.480469 284.347656 258.089844 281.453125 259.5625 279.210938 C 261.261719 276.613281 264.839844 276.28125 267.074219 278.511719 C 267.914062 279.351562 268.898438 279.738281 269.261719 279.375 C 269.625 279.007812 268.921875 277.898438 267.699219 276.90625 C 265.554688 275.167969 262.75 274.726562 260.246094 275.734375 M 281.875 276.65625 C 279.496094 281.105469 277.082031 288.292969 277.972656 288.292969 C 278.5 288.292969 279.175781 287.65625 279.472656 286.878906 C 279.785156 286.070312 281.191406 285.464844 282.769531 285.464844 C 284.351562 285.464844 285.757812 286.070312 286.066406 286.878906 C 286.367188 287.65625 287.015625 288.292969 287.515625 288.292969 C 288.570312 288.292969 287.976562 286.1875 285.042969 279.539062 C 283.089844 275.113281 282.828125 274.875 281.875 276.65625 M 238.835938 279.210938 C 236.410156 282.910156 238.546875 286.367188 243.277344 286.394531 C 247.324219 286.417969 249.238281 281.402344 246.304688 278.46875 C 244.113281 276.277344 240.527344 276.632812 238.835938 279.210938 M 159.421875 281.199219 C 158.460938 283.3125 158.546875 283.582031 160.199219 283.582031 C 162.136719 283.582031 162.585938 282.09375 161.269531 280.023438 C 160.71875 279.148438 160.210938 279.472656 159.421875 281.199219 M 194.121094 279.5 C 194.105469 280.105469 193.835938 281.273438 193.519531 282.089844 C 193.109375 283.160156 193.511719 283.582031 194.933594 283.582031 C 196.023438 283.582031 196.917969 283.238281 196.917969 282.820312 C 196.917969 281.578125 194.15625 278.300781 194.121094 279.5 M 281.90625 280.757812 C 281.195312 282.582031 281.296875 283.183594 282.359375 283.429688 C 284.347656 283.890625 284.675781 283.207031 283.695312 280.65625 L 282.824219 278.402344 Z M 92.070312 289.832031 C 91.738281 290.164062 91.691406 290.804688 91.964844 291.25 C 92.242188 291.695312 138.046875 292.058594 193.753906 292.058594 C 274.367188 292.058594 294.964844 291.820312 294.648438 290.882812 C 294.339844 289.953125 273.089844 289.65625 193.46875 289.464844 C 138.035156 289.332031 92.40625 289.5 92.070312 289.832031 " fill-rule="evenodd"/></svg>